solid OpenSCAD_Model
  facet normal 1 0 0
    outer loop
      vertex 40.00121417170763 4.679808733165263 1.6
      vertex 40.00121417170763 2.268925399899482 1.8
      vertex 40.00121417170763 2.268925399899482 1.6
    endloop
  endfacet
  facet normal 1 0 0
    outer loop
      vertex 40.00121417170763 4.679808733165263 1.6
      vertex 40.00121417170763 4.679808733165263 1.8
      vertex 40.00121417170763 2.268925399899482 1.8
    endloop
  endfacet
  facet normal 0 1 0
    outer loop
      vertex 37.590330838441844 4.679808733165263 1.6
      vertex 40.00121417170763 4.679808733165263 1.8
      vertex 40.00121417170763 4.679808733165263 1.6
    endloop
  endfacet
  facet normal 0 1 0
    outer loop
      vertex 37.590330838441844 4.679808733165263 1.6
      vertex 37.590330838441844 4.679808733165263 1.8
      vertex 40.00121417170763 4.679808733165263 1.8
    endloop
  endfacet
  facet normal -1 0 0
    outer loop
      vertex 37.590330838441844 2.268925399899482 1.6
      vertex 37.590330838441844 4.679808733165263 1.8
      vertex 37.590330838441844 4.679808733165263 1.6
    endloop
  endfacet
  facet normal -1 0 0
    outer loop
      vertex 37.590330838441844 2.268925399899482 1.6
      vertex 37.590330838441844 2.268925399899482 1.8
      vertex 37.590330838441844 4.679808733165263 1.8
    endloop
  endfacet
  facet normal 0 -1 0
    outer loop
      vertex 40.00121417170763 2.268925399899482 1.6
      vertex 37.590330838441844 2.268925399899482 1.8
      vertex 37.590330838441844 2.268925399899482 1.6
    endloop
  endfacet
  facet normal 0 -1 0
    outer loop
      vertex 40.00121417170763 2.268925399899482 1.6
      vertex 40.00121417170763 2.268925399899482 1.8
      vertex 37.590330838441844 2.268925399899482 1.8
    endloop
  endfacet
  facet normal 1 0 0
    outer loop
      vertex 37.44639750532806 3.6362920663803813 1.6
      vertex 37.44639750532806 3.276458733215927 1.8
      vertex 37.44639750532806 3.276458733215927 1.6
    endloop
  endfacet
  facet normal 1 0 0
    outer loop
      vertex 37.44639750532806 3.6362920663803813 1.6
      vertex 37.44639750532806 3.6362920663803813 1.8
      vertex 37.44639750532806 3.276458733215927 1.8
    endloop
  endfacet
  facet normal 0 1 0
    outer loop
      vertex 37.0146082996875 3.6362920663803813 1.6
      vertex 37.44639750532806 3.6362920663803813 1.8
      vertex 37.44639750532806 3.6362920663803813 1.6
    endloop
  endfacet
  facet normal 0 1 0
    outer loop
      vertex 37.0146082996875 3.6362920663803813 1.6
      vertex 37.0146082996875 3.6362920663803813 1.8
      vertex 37.44639750532806 3.6362920663803813 1.8
    endloop
  endfacet
  facet normal 1 0 0
    outer loop
      vertex 37.0146082996875 11.804508733317256 1.6
      vertex 37.0146082996875 3.6362920663803813 1.8
      vertex 37.0146082996875 3.6362920663803813 1.6
    endloop
  endfacet
  facet normal 1 0 0
    outer loop
      vertex 37.0146082996875 11.804508733317256 1.6
      vertex 37.0146082996875 11.804508733317256 1.8
      vertex 37.0146082996875 3.6362920663803813 1.8
    endloop
  endfacet
  facet normal 0 1 0
    outer loop
      vertex 36.65477496652305 11.804508733317256 1.6
      vertex 37.0146082996875 11.804508733317256 1.8
      vertex 37.0146082996875 11.804508733317256 1.6
    endloop
  endfacet
  facet normal 0 1 0
    outer loop
      vertex 36.65477496652305 11.804508733317256 1.6
      vertex 36.65477496652305 11.804508733317256 1.8
      vertex 37.0146082996875 11.804508733317256 1.8
    endloop
  endfacet
  facet normal -1 0 0
    outer loop
      vertex 36.65477496652305 1.648716666936874 1.6
      vertex 36.65477496652305 11.804508733317256 1.8
      vertex 36.65477496652305 11.804508733317256 1.6
    endloop
  endfacet
  facet normal -1 0 0
    outer loop
      vertex 36.65477496652305 1.648716666936874 1.6
      vertex 36.65477496652305 1.648716666936874 1.8
      vertex 36.65477496652305 11.804508733317256 1.8
    endloop
  endfacet
  facet normal 0 -1 0
    outer loop
      vertex 37.0146082996875 1.648716666936874 1.6
      vertex 36.65477496652305 1.648716666936874 1.8
      vertex 36.65477496652305 1.648716666936874 1.6
    endloop
  endfacet
  facet normal 0 -1 0
    outer loop
      vertex 37.0146082996875 1.648716666936874 1.6
      vertex 37.0146082996875 1.648716666936874 1.8
      vertex 36.65477496652305 1.648716666936874 1.8
    endloop
  endfacet
  facet normal 1 0 0
    outer loop
      vertex 37.0146082996875 3.276458733215927 1.6
      vertex 37.0146082996875 1.648716666936874 1.8
      vertex 37.0146082996875 1.648716666936874 1.6
    endloop
  endfacet
  facet normal 1 0 0
    outer loop
      vertex 37.0146082996875 3.276458733215927 1.6
      vertex 37.0146082996875 3.276458733215927 1.8
      vertex 37.0146082996875 1.648716666936874 1.8
    endloop
  endfacet
  facet normal 0 -1 0
    outer loop
      vertex 37.44639750532806 3.276458733215927 1.6
      vertex 37.0146082996875 3.276458733215927 1.8
      vertex 37.0146082996875 3.276458733215927 1.6
    endloop
  endfacet
  facet normal 0 -1 0
    outer loop
      vertex 37.44639750532806 3.276458733215927 1.6
      vertex 37.44639750532806 3.276458733215927 1.8
      vertex 37.0146082996875 3.276458733215927 1.8
    endloop
  endfacet
  facet normal -0.9999999746803437 -0.00022503180241274461 0
    outer loop
      vertex 36.6547749710828 12.63212089653313 1.6
      vertex 36.65439439414441 14.323334870174525 1.8
      vertex 36.65439439414441 14.323334870174525 1.6
    endloop
  endfacet
  facet normal -0.9999999746803437 -0.00022503180241274461 0
    outer loop
      vertex 36.6547749710828 12.63212089653313 1.6
      vertex 36.6547749710828 12.63212089653313 1.8
      vertex 36.65439439414441 14.323334870174525 1.8
    endloop
  endfacet
  facet normal 0.00022503100053177246 -0.999999974680524 0
    outer loop
      vertex 37.01460829512774 12.632201870188116 1.6
      vertex 36.6547749710828 12.63212089653313 1.8
      vertex 36.6547749710828 12.63212089653313 1.6
    endloop
  endfacet
  facet normal 0.00022503100053177246 -0.999999974680524 0
    outer loop
      vertex 37.01460829512774 12.632201870188116 1.6
      vertex 37.01460829512774 12.632201870188116 1.8
      vertex 36.6547749710828 12.63212089653313 1.8
    endloop
  endfacet
  facet normal 0.9999999746804575 0.00022503129593851406 0
    outer loop
      vertex 37.01381666232645 16.150080474361776 1.6
      vertex 37.01460829512774 12.632201870188116 1.8
      vertex 37.01460829512774 12.632201870188116 1.6
    endloop
  endfacet
  facet normal 0.9999999746804575 0.00022503129593851406 0
    outer loop
      vertex 37.01381666232645 16.150080474361776 1.6
      vertex 37.01381666232645 16.150080474361776 1.8
      vertex 37.01460829512774 12.632201870188116 1.8
    endloop
  endfacet
  facet normal -0.00022503311203690484 0.999999974680049 0
    outer loop
      vertex 36.65398333752155 16.14999949994683 1.6
      vertex 37.01381666232645 16.150080474361776 1.8
      vertex 37.01381666232645 16.150080474361776 1.6
    endloop
  endfacet
  facet normal -0.00022503311203690484 0.999999974680049 0
    outer loop
      vertex 36.65398333752155 16.14999949994683 1.6
      vertex 36.65398333752155 16.14999949994683 1.8
      vertex 37.01381666232645 16.150080474361776 1.8
    endloop
  endfacet
  facet normal -0.9999999746804558 -0.0002250313040658679 0
    outer loop
      vertex 36.65431342048943 14.68316820333898 1.6
      vertex 36.65398333752155 16.14999949994683 1.8
      vertex 36.65398333752155 16.14999949994683 1.6
    endloop
  endfacet
  facet normal -0.9999999746804558 -0.0002250313040658679 0
    outer loop
      vertex 36.65431342048943 14.68316820333898 1.6
      vertex 36.65431342048943 14.68316820333898 1.8
      vertex 36.65398333752155 16.14999949994683 1.8
    endloop
  endfacet
  facet normal 0 1 0
    outer loop
      vertex 36.22297496642172 14.68316820333898 1.6
      vertex 36.65431342048943 14.68316820333898 1.8
      vertex 36.65431342048943 14.68316820333898 1.6
    endloop
  endfacet
  facet normal 0 1 0
    outer loop
      vertex 36.22297496642172 14.68316820333898 1.6
      vertex 36.22297496642172 14.68316820333898 1.8
      vertex 36.65431342048943 14.68316820333898 1.8
    endloop
  endfacet
  facet normal -1 0 0
    outer loop
      vertex 36.22297496642172 14.323334870174525 1.6
      vertex 36.22297496642172 14.68316820333898 1.8
      vertex 36.22297496642172 14.68316820333898 1.6
    endloop
  endfacet
  facet normal -1 0 0
    outer loop
      vertex 36.22297496642172 14.323334870174525 1.6
      vertex 36.22297496642172 14.323334870174525 1.8
      vertex 36.22297496642172 14.68316820333898 1.8
    endloop
  endfacet
  facet normal 0 -1 0
    outer loop
      vertex 36.65439439414441 14.323334870174525 1.6
      vertex 36.22297496642172 14.323334870174525 1.8
      vertex 36.22297496642172 14.323334870174525 1.6
    endloop
  endfacet
  facet normal 0 -1 0
    outer loop
      vertex 36.65439439414441 14.323334870174525 1.6
      vertex 36.65439439414441 14.323334870174525 1.8
      vertex 36.22297496642172 14.323334870174525 1.8
    endloop
  endfacet
  facet normal 1 0 0
    outer loop
      vertex 36.043058299839494 15.690701536655425 1.6
      vertex 36.043058299839494 13.279818203389643 1.8
      vertex 36.043058299839494 13.279818203389643 1.6
    endloop
  endfacet
  facet normal 1 0 0
    outer loop
      vertex 36.043058299839494 15.690701536655425 1.6
      vertex 36.043058299839494 15.690701536655425 1.8
      vertex 36.043058299839494 13.279818203389643 1.8
    endloop
  endfacet
  facet normal 0 1 0
    outer loop
      vertex 33.632174966573714 15.690701536655425 1.6
      vertex 36.043058299839494 15.690701536655425 1.8
      vertex 36.043058299839494 15.690701536655425 1.6
    endloop
  endfacet
  facet normal 0 1 0
    outer loop
      vertex 33.632174966573714 15.690701536655425 1.6
      vertex 33.632174966573714 15.690701536655425 1.8
      vertex 36.043058299839494 15.690701536655425 1.8
    endloop
  endfacet
  facet normal -1 0 0
    outer loop
      vertex 33.632174966573714 13.279818203389643 1.6
      vertex 33.632174966573714 15.690701536655425 1.8
      vertex 33.632174966573714 15.690701536655425 1.6
    endloop
  endfacet
  facet normal -1 0 0
    outer loop
      vertex 33.632174966573714 13.279818203389643 1.6
      vertex 33.632174966573714 13.279818203389643 1.8
      vertex 33.632174966573714 15.690701536655425 1.8
    endloop
  endfacet
  facet normal 0 -1 0
    outer loop
      vertex 36.043058299839494 13.279818203389643 1.6
      vertex 33.632174966573714 13.279818203389643 1.8
      vertex 33.632174966573714 13.279818203389643 1.6
    endloop
  endfacet
  facet normal 0 -1 0
    outer loop
      vertex 36.043058299839494 13.279818203389643 1.6
      vertex 36.043058299839494 13.279818203389643 1.8
      vertex 33.632174966573714 13.279818203389643 1.8
    endloop
  endfacet
  facet normal 0 0 1
    outer loop
      vertex 40.00121417170763 2.268925399899482 1.8
      vertex 40.00121417170763 4.679808733165263 1.8
      vertex 37.590330838441844 4.679808733165263 1.8
    endloop
  endfacet
  facet normal 0 0 1
    outer loop
      vertex 37.590330838441844 2.268925399899482 1.8
      vertex 40.00121417170763 2.268925399899482 1.8
      vertex 37.590330838441844 4.679808733165263 1.8
    endloop
  endfacet
  facet normal 0 0 1
    outer loop
      vertex 37.44639750532806 3.276458733215927 1.8
      vertex 37.44639750532806 3.6362920663803813 1.8
      vertex 37.0146082996875 3.6362920663803813 1.8
    endloop
  endfacet
  facet normal 0 0 1
    outer loop
      vertex 37.0146082996875 3.276458733215927 1.8
      vertex 37.44639750532806 3.276458733215927 1.8
      vertex 37.0146082996875 3.6362920663803813 1.8
    endloop
  endfacet
  facet normal 0 0 1
    outer loop
      vertex 37.0146082996875 3.6362920663803813 1.8
      vertex 37.0146082996875 11.804508733317256 1.8
      vertex 36.65477496652305 11.804508733317256 1.8
    endloop
  endfacet
  facet normal 0 0 1
    outer loop
      vertex 36.65477496652305 1.648716666936874 1.8
      vertex 37.0146082996875 1.648716666936874 1.8
      vertex 37.0146082996875 3.276458733215927 1.8
    endloop
  endfacet
  facet normal 0 0 1
    outer loop
      vertex 36.65477496652305 11.804508733317256 1.8
      vertex 36.65477496652305 1.648716666936874 1.8
      vertex 37.0146082996875 3.276458733215927 1.8
    endloop
  endfacet
  facet normal 0 0 1
    outer loop
      vertex 37.0146082996875 3.6362920663803813 1.8
      vertex 36.65477496652305 11.804508733317256 1.8
      vertex 37.0146082996875 3.276458733215927 1.8
    endloop
  endfacet
  facet normal 0 0 1
    outer loop
      vertex 36.65431342048943 14.68316820333898 1.8
      vertex 36.22297496642172 14.68316820333898 1.8
      vertex 36.22297496642172 14.323334870174525 1.8
    endloop
  endfacet
  facet normal 0 0 1
    outer loop
      vertex 36.65431342048943 14.68316820333898 1.8
      vertex 36.22297496642172 14.323334870174525 1.8
      vertex 36.65439439414441 14.323334870174525 1.8
    endloop
  endfacet
  facet normal 0 0 1
    outer loop
      vertex 36.65439439414441 14.323334870174525 1.8
      vertex 36.6547749710828 12.63212089653313 1.8
      vertex 37.01460829512774 12.632201870188116 1.8
    endloop
  endfacet
  facet normal 0 0 1
    outer loop
      vertex 37.01381666232645 16.150080474361776 1.8
      vertex 36.65398333752155 16.14999949994683 1.8
      vertex 36.65431342048943 14.68316820333898 1.8
    endloop
  endfacet
  facet normal 0 0 1
    outer loop
      vertex 37.01460829512774 12.632201870188116 1.8
      vertex 37.01381666232645 16.150080474361776 1.8
      vertex 36.65431342048943 14.68316820333898 1.8
    endloop
  endfacet
  facet normal 0 0 1
    outer loop
      vertex 36.65439439414441 14.323334870174525 1.8
      vertex 37.01460829512774 12.632201870188116 1.8
      vertex 36.65431342048943 14.68316820333898 1.8
    endloop
  endfacet
  facet normal 0 0 1
    outer loop
      vertex 36.043058299839494 13.279818203389643 1.8
      vertex 36.043058299839494 15.690701536655425 1.8
      vertex 33.632174966573714 15.690701536655425 1.8
    endloop
  endfacet
  facet normal 0 0 1
    outer loop
      vertex 33.632174966573714 13.279818203389643 1.8
      vertex 36.043058299839494 13.279818203389643 1.8
      vertex 33.632174966573714 15.690701536655425 1.8
    endloop
  endfacet
  facet normal 0 0 -1
    outer loop
      vertex 37.590330838441844 4.679808733165263 1.6
      vertex 40.00121417170763 4.679808733165263 1.6
      vertex 40.00121417170763 2.268925399899482 1.6
    endloop
  endfacet
  facet normal 0 0 -1
    outer loop
      vertex 37.590330838441844 4.679808733165263 1.6
      vertex 40.00121417170763 2.268925399899482 1.6
      vertex 37.590330838441844 2.268925399899482 1.6
    endloop
  endfacet
  facet normal 0 0 -1
    outer loop
      vertex 37.0146082996875 3.6362920663803813 1.6
      vertex 37.44639750532806 3.6362920663803813 1.6
      vertex 37.44639750532806 3.276458733215927 1.6
    endloop
  endfacet
  facet normal 0 0 -1
    outer loop
      vertex 37.0146082996875 3.6362920663803813 1.6
      vertex 37.44639750532806 3.276458733215927 1.6
      vertex 37.0146082996875 3.276458733215927 1.6
    endloop
  endfacet
  facet normal 0 0 -1
    outer loop
      vertex 36.65477496652305 11.804508733317256 1.6
      vertex 37.0146082996875 11.804508733317256 1.6
      vertex 37.0146082996875 3.6362920663803813 1.6
    endloop
  endfacet
  facet normal 0 0 -1
    outer loop
      vertex 37.0146082996875 3.276458733215927 1.6
      vertex 37.0146082996875 1.648716666936874 1.6
      vertex 36.65477496652305 1.648716666936874 1.6
    endloop
  endfacet
  facet normal 0 0 -1
    outer loop
      vertex 37.0146082996875 3.276458733215927 1.6
      vertex 36.65477496652305 1.648716666936874 1.6
      vertex 36.65477496652305 11.804508733317256 1.6
    endloop
  endfacet
  facet normal 0 0 -1
    outer loop
      vertex 37.0146082996875 3.276458733215927 1.6
      vertex 36.65477496652305 11.804508733317256 1.6
      vertex 37.0146082996875 3.6362920663803813 1.6
    endloop
  endfacet
  facet normal 0 0 -1
    outer loop
      vertex 36.22297496642172 14.323334870174525 1.6
      vertex 36.22297496642172 14.68316820333898 1.6
      vertex 36.65431342048943 14.68316820333898 1.6
    endloop
  endfacet
  facet normal 0 0 -1
    outer loop
      vertex 36.65439439414441 14.323334870174525 1.6
      vertex 36.22297496642172 14.323334870174525 1.6
      vertex 36.65431342048943 14.68316820333898 1.6
    endloop
  endfacet
  facet normal 0 0 -1
    outer loop
      vertex 37.01460829512774 12.632201870188116 1.6
      vertex 36.6547749710828 12.63212089653313 1.6
      vertex 36.65439439414441 14.323334870174525 1.6
    endloop
  endfacet
  facet normal 0 0 -1
    outer loop
      vertex 36.65431342048943 14.68316820333898 1.6
      vertex 36.65398333752155 16.14999949994683 1.6
      vertex 37.01381666232645 16.150080474361776 1.6
    endloop
  endfacet
  facet normal 0 0 -1
    outer loop
      vertex 36.65431342048943 14.68316820333898 1.6
      vertex 37.01381666232645 16.150080474361776 1.6
      vertex 37.01460829512774 12.632201870188116 1.6
    endloop
  endfacet
  facet normal 0 0 -1
    outer loop
      vertex 36.65431342048943 14.68316820333898 1.6
      vertex 37.01460829512774 12.632201870188116 1.6
      vertex 36.65439439414441 14.323334870174525 1.6
    endloop
  endfacet
  facet normal 0 0 -1
    outer loop
      vertex 33.632174966573714 15.690701536655425 1.6
      vertex 36.043058299839494 15.690701536655425 1.6
      vertex 36.043058299839494 13.279818203389643 1.6
    endloop
  endfacet
  facet normal 0 0 -1
    outer loop
      vertex 33.632174966573714 15.690701536655425 1.6
      vertex 36.043058299839494 13.279818203389643 1.6
      vertex 33.632174966573714 13.279818203389643 1.6
    endloop
  endfacet
endsolid OpenSCAD_Model
