solid OpenSCAD_Model
  facet normal 1 0 0
    outer loop
      vertex 1.2 6.6 0.401
      vertex 1.2 1.4 0
      vertex 1.2 6.6 0
    endloop
  endfacet
  facet normal 1 0 0
    outer loop
      vertex 1.2 1.4 0.401
      vertex 1.2 1.4 0
      vertex 1.2 6.6 0.401
    endloop
  endfacet
  facet normal 0 1 0
    outer loop
      vertex 1.2 1.4 0.401
      vertex 4.6 1.4 0
      vertex 1.2 1.4 0
    endloop
  endfacet
  facet normal 0 1 0
    outer loop
      vertex 1.2 1.4 0.401
      vertex 4.6 1.4 0.401
      vertex 4.6 1.4 0
    endloop
  endfacet
  facet normal 0 -1 0
    outer loop
      vertex 1.2 6.6 0.401
      vertex 1.2 6.6 0
      vertex 4.6 6.6 0.401
    endloop
  endfacet
  facet normal 0 -1 0
    outer loop
      vertex 4.6 6.6 0.401
      vertex 1.2 6.6 0
      vertex 4.6 6.6 0
    endloop
  endfacet
  facet normal 0.9578658013157303 0 -0.2872161323285548
    outer loop
      vertex 1.2 1.4 0.401
      vertex 1.2 6.6 0.401
      vertex 1.7994002998500749 5.101499250374812 2.4
    endloop
  endfacet
  facet normal 0 0.8001439309053371 -0.5998080441569246
    outer loop
      vertex 1.2 1.4 0.401
      vertex 1.7994002998500749 2.8985007496251876 2.4
      vertex 4.6 1.4 0.401
    endloop
  endfacet
  facet normal 0 -0.8001439309053371 -0.5998080441569246
    outer loop
      vertex 1.2 6.6 0.401
      vertex 4.6 6.6 0.401
      vertex 4.000599700149925 5.101499250374812 2.4
    endloop
  endfacet
  facet normal -1 0 0
    outer loop
      vertex 4.6 1.4 0.401
      vertex 4.6 6.6 0
      vertex 4.6 1.4 0
    endloop
  endfacet
  facet normal -1 0 0
    outer loop
      vertex 4.6 1.4 0.401
      vertex 4.6 6.6 0.401
      vertex 4.6 6.6 0
    endloop
  endfacet
  facet normal -0.9578658013157304 0 -0.28721613232855475
    outer loop
      vertex 4.6 1.4 0.401
      vertex 4.000599700149925 2.8985007496251876 2.4
      vertex 4.6 6.6 0.401
    endloop
  endfacet
  facet normal 0.9578658013157303 0 -0.28721613232855486
    outer loop
      vertex 1.2 1.4 0.401
      vertex 1.7994002998500749 5.101499250374812 2.4
      vertex 1.7994002998500749 2.8985007496251876 2.4
    endloop
  endfacet
  facet normal 0 0.8001439309053372 -0.5998080441569246
    outer loop
      vertex 4.6 1.4 0.401
      vertex 1.7994002998500749 2.8985007496251876 2.4
      vertex 4.000599700149925 2.8985007496251876 2.4
    endloop
  endfacet
  facet normal 0 -0.800143930905337 -0.5998080441569246
    outer loop
      vertex 1.2 6.6 0.401
      vertex 4.000599700149925 5.101499250374812 2.4
      vertex 1.7994002998500749 5.101499250374812 2.4
    endloop
  endfacet
  facet normal -0.9578658013157303 0 -0.2872161323285547
    outer loop
      vertex 4.6 6.6 0.401
      vertex 4.000599700149925 2.8985007496251876 2.4
      vertex 4.000599700149925 5.101499250374812 2.4
    endloop
  endfacet
  facet normal 1 0 0
    outer loop
      vertex 1.2 7.4 0.401
      vertex 1.2 7.4 0
      vertex 1.2 12.600000000000001 0.401
    endloop
  endfacet
  facet normal 0 1 0
    outer loop
      vertex 1.2 7.4 0.401
      vertex 4.6 7.4 0
      vertex 1.2 7.4 0
    endloop
  endfacet
  facet normal 0 1 0
    outer loop
      vertex 1.2 7.4 0.401
      vertex 4.6 7.4 0.401
      vertex 4.6 7.4 0
    endloop
  endfacet
  facet normal 0.9578658013157304 0 -0.28721613232855486
    outer loop
      vertex 1.2 7.4 0.401
      vertex 1.2 12.600000000000001 0.401
      vertex 1.7994002998500749 11.101499250374815 2.4
    endloop
  endfacet
  facet normal 0 0.8001439309053373 -0.5998080441569242
    outer loop
      vertex 1.2 7.4 0.401
      vertex 1.7994002998500749 8.898500749625187 2.4
      vertex 4.6 7.4 0.401
    endloop
  endfacet
  facet normal 1 0 0
    outer loop
      vertex 1.2 12.600000000000001 0.401
      vertex 1.2 7.4 0
      vertex 1.2 12.600000000000001 0
    endloop
  endfacet
  facet normal 0 -1 0
    outer loop
      vertex 1.2 12.600000000000001 0.401
      vertex 1.2 12.600000000000001 0
      vertex 4.6 12.600000000000001 0
    endloop
  endfacet
  facet normal 0 -1 0
    outer loop
      vertex 1.2 12.600000000000001 0.401
      vertex 4.6 12.600000000000001 0
      vertex 4.6 12.600000000000001 0.401
    endloop
  endfacet
  facet normal 0 -0.8001439309053373 -0.5998080441569242
    outer loop
      vertex 1.2 12.600000000000001 0.401
      vertex 4.6 12.600000000000001 0.401
      vertex 4.000599700149925 11.101499250374815 2.4
    endloop
  endfacet
  facet normal -1 0 0
    outer loop
      vertex 4.6 7.4 0.401
      vertex 4.6 12.600000000000001 0
      vertex 4.6 7.4 0
    endloop
  endfacet
  facet normal -0.9578658013157304 0 -0.2872161323285547
    outer loop
      vertex 4.6 7.4 0.401
      vertex 4.000599700149925 8.898500749625187 2.4
      vertex 4.6 12.600000000000001 0.401
    endloop
  endfacet
  facet normal -1 0 0
    outer loop
      vertex 4.6 7.4 0.401
      vertex 4.6 12.600000000000001 0.401
      vertex 4.6 12.600000000000001 0
    endloop
  endfacet
  facet normal 0.9578658013157302 0 -0.2872161323285548
    outer loop
      vertex 1.2 7.4 0.401
      vertex 1.7994002998500749 11.101499250374815 2.4
      vertex 1.7994002998500749 8.898500749625187 2.4
    endloop
  endfacet
  facet normal 0 0.8001439309053373 -0.5998080441569243
    outer loop
      vertex 4.6 7.4 0.401
      vertex 1.7994002998500749 8.898500749625187 2.4
      vertex 4.000599700149925 8.898500749625187 2.4
    endloop
  endfacet
  facet normal 0 -0.8001439309053372 -0.5998080441569243
    outer loop
      vertex 1.2 12.600000000000001 0.401
      vertex 4.000599700149925 11.101499250374815 2.4
      vertex 1.7994002998500749 11.101499250374815 2.4
    endloop
  endfacet
  facet normal -0.9578658013157302 0 -0.2872161323285547
    outer loop
      vertex 4.6 12.600000000000001 0.401
      vertex 4.000599700149925 8.898500749625187 2.4
      vertex 4.000599700149925 11.101499250374815 2.4
    endloop
  endfacet
  facet normal 1 0 0
    outer loop
      vertex 1.2 13.4 0.401
      vertex 1.2 13.4 0
      vertex 1.2 18.6 0.401
    endloop
  endfacet
  facet normal 1 0 0
    outer loop
      vertex 1.2 18.6 0.401
      vertex 1.2 13.4 0
      vertex 1.2 18.6 0
    endloop
  endfacet
  facet normal 0 1 0
    outer loop
      vertex 1.2 13.4 0.401
      vertex 4.6 13.4 0
      vertex 1.2 13.4 0
    endloop
  endfacet
  facet normal 0 1 0
    outer loop
      vertex 1.2 13.4 0.401
      vertex 4.6 13.4 0.401
      vertex 4.6 13.4 0
    endloop
  endfacet
  facet normal 0 -1 0
    outer loop
      vertex 1.2 18.6 0.401
      vertex 1.2 18.6 0
      vertex 4.6 18.6 0
    endloop
  endfacet
  facet normal 0 -1 0
    outer loop
      vertex 1.2 18.6 0.401
      vertex 4.6 18.6 0
      vertex 4.6 18.6 0.401
    endloop
  endfacet
  facet normal 0.9578658013157304 0 -0.28721613232855486
    outer loop
      vertex 1.2 13.4 0.401
      vertex 1.2 18.6 0.401
      vertex 1.7994002998500749 17.101499250374815 2.4
    endloop
  endfacet
  facet normal 0 0.8001439309053373 -0.5998080441569242
    outer loop
      vertex 1.2 13.4 0.401
      vertex 1.7994002998500749 14.898500749625187 2.4
      vertex 4.6 13.4 0.401
    endloop
  endfacet
  facet normal 0 -0.8001439309053373 -0.5998080441569242
    outer loop
      vertex 1.2 18.6 0.401
      vertex 4.6 18.6 0.401
      vertex 4.000599700149925 17.101499250374815 2.4
    endloop
  endfacet
  facet normal -1 0 0
    outer loop
      vertex 4.6 13.4 0.401
      vertex 4.6 18.6 0
      vertex 4.6 13.4 0
    endloop
  endfacet
  facet normal -1 0 0
    outer loop
      vertex 4.6 13.4 0.401
      vertex 4.6 18.6 0.401
      vertex 4.6 18.6 0
    endloop
  endfacet
  facet normal -0.9578658013157304 0 -0.2872161323285547
    outer loop
      vertex 4.6 13.4 0.401
      vertex 4.000599700149925 14.898500749625187 2.4
      vertex 4.6 18.6 0.401
    endloop
  endfacet
  facet normal 0.9578658013157302 0 -0.2872161323285548
    outer loop
      vertex 1.2 13.4 0.401
      vertex 1.7994002998500749 17.101499250374815 2.4
      vertex 1.7994002998500749 14.898500749625187 2.4
    endloop
  endfacet
  facet normal 0 0.8001439309053373 -0.5998080441569243
    outer loop
      vertex 4.6 13.4 0.401
      vertex 1.7994002998500749 14.898500749625187 2.4
      vertex 4.000599700149925 14.898500749625187 2.4
    endloop
  endfacet
  facet normal 0 -0.8001439309053372 -0.5998080441569243
    outer loop
      vertex 1.2 18.6 0.401
      vertex 4.000599700149925 17.101499250374815 2.4
      vertex 1.7994002998500749 17.101499250374815 2.4
    endloop
  endfacet
  facet normal -0.9578658013157302 0 -0.2872161323285547
    outer loop
      vertex 4.6 18.6 0.401
      vertex 4.000599700149925 14.898500749625187 2.4
      vertex 4.000599700149925 17.101499250374815 2.4
    endloop
  endfacet
  facet normal 1 0 0
    outer loop
      vertex 1.2 19.4 0.401
      vertex 1.2 19.4 0
      vertex 1.2 24.599999999999998 0.401
    endloop
  endfacet
  facet normal 0 1 0
    outer loop
      vertex 1.2 19.4 0.401
      vertex 4.6 19.4 0.401
      vertex 1.2 19.4 0
    endloop
  endfacet
  facet normal 0 1 0
    outer loop
      vertex 4.6 19.4 0.401
      vertex 4.6 19.4 0
      vertex 1.2 19.4 0
    endloop
  endfacet
  facet normal 0 0.8001439309053373 -0.5998080441569242
    outer loop
      vertex 1.2 19.4 0.401
      vertex 1.7994002998500749 20.898500749625185 2.4
      vertex 4.6 19.4 0.401
    endloop
  endfacet
  facet normal -1 0 0
    outer loop
      vertex 4.6 19.4 0.401
      vertex 4.6 24.599999999999998 0
      vertex 4.6 19.4 0
    endloop
  endfacet
  facet normal 0.9578658013157304 0 -0.28721613232855486
    outer loop
      vertex 1.2 19.4 0.401
      vertex 1.7994002998500749 23.10149925037481 2.4
      vertex 1.7994002998500749 20.898500749625185 2.4
    endloop
  endfacet
  facet normal 0 0.8001439309053373 -0.5998080441569243
    outer loop
      vertex 4.6 19.4 0.401
      vertex 1.7994002998500749 20.898500749625185 2.4
      vertex 4.000599700149925 20.898500749625185 2.4
    endloop
  endfacet
  facet normal 1 0 0
    outer loop
      vertex 1.2 24.599999999999998 0.401
      vertex 1.2 19.4 0
      vertex 1.2 24.599999999999998 0
    endloop
  endfacet
  facet normal 0 -1 0
    outer loop
      vertex 1.2 24.599999999999998 0.401
      vertex 1.2 24.599999999999998 0
      vertex 4.6 24.599999999999998 0.401
    endloop
  endfacet
  facet normal 0 -1 0
    outer loop
      vertex 4.6 24.599999999999998 0.401
      vertex 1.2 24.599999999999998 0
      vertex 4.6 24.599999999999998 0
    endloop
  endfacet
  facet normal 0.9578658013157303 0 -0.2872161323285548
    outer loop
      vertex 1.2 19.4 0.401
      vertex 1.2 24.599999999999998 0.401
      vertex 1.7994002998500749 23.10149925037481 2.4
    endloop
  endfacet
  facet normal 0 -0.8001439309053373 -0.5998080441569242
    outer loop
      vertex 1.2 24.599999999999998 0.401
      vertex 4.6 24.599999999999998 0.401
      vertex 4.000599700149925 23.10149925037481 2.4
    endloop
  endfacet
  facet normal -1 0 0
    outer loop
      vertex 4.6 19.4 0.401
      vertex 4.6 24.599999999999998 0.401
      vertex 4.6 24.599999999999998 0
    endloop
  endfacet
  facet normal -0.9578658013157304 0 -0.28721613232855475
    outer loop
      vertex 4.6 19.4 0.401
      vertex 4.000599700149925 20.898500749625185 2.4
      vertex 4.6 24.599999999999998 0.401
    endloop
  endfacet
  facet normal 0 -0.8001439309053372 -0.5998080441569243
    outer loop
      vertex 1.2 24.599999999999998 0.401
      vertex 4.000599700149925 23.10149925037481 2.4
      vertex 1.7994002998500749 23.10149925037481 2.4
    endloop
  endfacet
  facet normal -0.9578658013157304 0 -0.2872161323285548
    outer loop
      vertex 4.6 24.599999999999998 0.401
      vertex 4.000599700149925 20.898500749625185 2.4
      vertex 4.000599700149925 23.10149925037481 2.4
    endloop
  endfacet
  facet normal 1 0 0
    outer loop
      vertex 9 6.1 1
      vertex 9 0.8 0
      vertex 9 6.1 0
    endloop
  endfacet
  facet normal 0 1 0
    outer loop
      vertex 9 0.8 1
      vertex 15 0.8 0
      vertex 9 0.8 0
    endloop
  endfacet
  facet normal 1 0 0
    outer loop
      vertex 9 0.8 1
      vertex 9 0.8 0
      vertex 9 6.1 1
    endloop
  endfacet
  facet normal 0 -1 0
    outer loop
      vertex 9 6.1 1
      vertex 9 6.1 0
      vertex 15 6.1 1
    endloop
  endfacet
  facet normal 0 -1 0
    outer loop
      vertex 15 6.1 1
      vertex 9 6.1 0
      vertex 15 6.1 0
    endloop
  endfacet
  facet normal -1 0 0
    outer loop
      vertex 15 0.8 1
      vertex 15 6.1 0
      vertex 15 0.8 0
    endloop
  endfacet
  facet normal 0 1 0
    outer loop
      vertex 9 0.8 1
      vertex 15 0.8 1
      vertex 15 0.8 0
    endloop
  endfacet
  facet normal -1 0 0
    outer loop
      vertex 15 0.8 1
      vertex 15 6.1 1
      vertex 15 6.1 0
    endloop
  endfacet
  facet normal 1 0 0
    outer loop
      vertex 9 12.1 1
      vertex 9 6.8 0
      vertex 9 12.1 0
    endloop
  endfacet
  facet normal 0 1 0
    outer loop
      vertex 9 6.8 1
      vertex 15 6.8 0
      vertex 9 6.8 0
    endloop
  endfacet
  facet normal 1 0 0
    outer loop
      vertex 9 6.8 1
      vertex 9 6.8 0
      vertex 9 12.1 1
    endloop
  endfacet
  facet normal 0 -1 0
    outer loop
      vertex 9 12.1 1
      vertex 9 12.1 0
      vertex 15 12.1 1
    endloop
  endfacet
  facet normal -1 0 0
    outer loop
      vertex 15 6.8 1
      vertex 15 12.1 0
      vertex 15 6.8 0
    endloop
  endfacet
  facet normal 0 1 0
    outer loop
      vertex 9 6.8 1
      vertex 15 6.8 1
      vertex 15 6.8 0
    endloop
  endfacet
  facet normal -1 0 0
    outer loop
      vertex 15 6.8 1
      vertex 15 12.1 1
      vertex 15 12.1 0
    endloop
  endfacet
  facet normal 0 -1 0
    outer loop
      vertex 15 12.1 1
      vertex 9 12.1 0
      vertex 15 12.1 0
    endloop
  endfacet
  facet normal 1 0 0
    outer loop
      vertex 9 18.1 1
      vertex 9 12.8 0
      vertex 9 18.1 0
    endloop
  endfacet
  facet normal 0 1 0
    outer loop
      vertex 9 12.8 1
      vertex 15 12.8 0
      vertex 9 12.8 0
    endloop
  endfacet
  facet normal 1 0 0
    outer loop
      vertex 9 12.8 1
      vertex 9 12.8 0
      vertex 9 18.1 1
    endloop
  endfacet
  facet normal 0 -1 0
    outer loop
      vertex 9 18.1 1
      vertex 9 18.1 0
      vertex 15 18.1 1
    endloop
  endfacet
  facet normal 0 -1 0
    outer loop
      vertex 15 18.1 1
      vertex 9 18.1 0
      vertex 15 18.1 0
    endloop
  endfacet
  facet normal -1 0 0
    outer loop
      vertex 15 12.8 1
      vertex 15 18.1 0
      vertex 15 12.8 0
    endloop
  endfacet
  facet normal 0 1 0
    outer loop
      vertex 9 12.8 1
      vertex 15 12.8 1
      vertex 15 12.8 0
    endloop
  endfacet
  facet normal -1 0 0
    outer loop
      vertex 15 12.8 1
      vertex 15 18.1 1
      vertex 15 18.1 0
    endloop
  endfacet
  facet normal 0 1 0
    outer loop
      vertex 9 18.8 1
      vertex 15 18.8 0
      vertex 9 18.8 0
    endloop
  endfacet
  facet normal 1 0 0
    outer loop
      vertex 9 18.8 1
      vertex 9 18.8 0
      vertex 9 24.1 1
    endloop
  endfacet
  facet normal -1 0 0
    outer loop
      vertex 15 18.8 1
      vertex 15 24.1 0
      vertex 15 18.8 0
    endloop
  endfacet
  facet normal 0 1 0
    outer loop
      vertex 9 18.8 1
      vertex 15 18.8 1
      vertex 15 18.8 0
    endloop
  endfacet
  facet normal 1 0 0
    outer loop
      vertex 9 24.1 1
      vertex 9 18.8 0
      vertex 9 24.1 0
    endloop
  endfacet
  facet normal 0 -1 0
    outer loop
      vertex 9 24.1 1
      vertex 9 24.1 0
      vertex 15 24.1 1
    endloop
  endfacet
  facet normal 0 -1 0
    outer loop
      vertex 15 24.1 1
      vertex 9 24.1 0
      vertex 15 24.1 0
    endloop
  endfacet
  facet normal -1 0 0
    outer loop
      vertex 15 18.8 1
      vertex 15 24.1 1
      vertex 15 24.1 0
    endloop
  endfacet
  facet normal 0 0 -1
    outer loop
      vertex 0 0 0
      vertex 1.2 6.6 0
      vertex 1.2 1.4 0
    endloop
  endfacet
  facet normal 0 0 -1
    outer loop
      vertex 0 0 0
      vertex 1.2 7.4 0
      vertex 1.2 6.6 0
    endloop
  endfacet
  facet normal 0 0 -1
    outer loop
      vertex 0 0 0
      vertex 1.2 1.4 0
      vertex 4.6 1.4 0
    endloop
  endfacet
  facet normal 0 0 -1
    outer loop
      vertex 0 0 0
      vertex 1.2 12.600000000000001 0
      vertex 1.2 7.4 0
    endloop
  endfacet
  facet normal 0 0 -1
    outer loop
      vertex 0 0 0
      vertex 1.2 13.4 0
      vertex 1.2 12.600000000000001 0
    endloop
  endfacet
  facet normal 0 0 -1
    outer loop
      vertex 0 0 0
      vertex 1.2 18.6 0
      vertex 1.2 13.4 0
    endloop
  endfacet
  facet normal 0 0 -1
    outer loop
      vertex 1.2 7.4 0
      vertex 4.6 7.4 0
      vertex 1.2 6.6 0
    endloop
  endfacet
  facet normal 0 0 -1
    outer loop
      vertex 0 0 0
      vertex 1.2 19.4 0
      vertex 1.2 18.6 0
    endloop
  endfacet
  facet normal 0 0 -1
    outer loop
      vertex 0 0 0
      vertex 0.8 26.2 0
      vertex 1.2 19.4 0
    endloop
  endfacet
  facet normal 0 0 -1
    outer loop
      vertex 1.2 13.4 0
      vertex 4.6 13.4 0
      vertex 1.2 12.600000000000001 0
    endloop
  endfacet
  facet normal 0 0 -1
    outer loop
      vertex 1.2 12.600000000000001 0
      vertex 4.6 13.4 0
      vertex 4.6 12.600000000000001 0
    endloop
  endfacet
  facet normal 0 0 -1
    outer loop
      vertex 1.2 18.6 0
      vertex 1.2 19.4 0
      vertex 4.6 18.6 0
    endloop
  endfacet
  facet normal 0 0 -1
    outer loop
      vertex 4.6 18.6 0
      vertex 1.2 19.4 0
      vertex 4.6 19.4 0
    endloop
  endfacet
  facet normal 0 0 -1
    outer loop
      vertex 0 0 0
      vertex 4.6 1.4 0
      vertex 9 0.8 0
    endloop
  endfacet
  facet normal 0 0 -1
    outer loop
      vertex 1.2 6.6 0
      vertex 9 6.8 0
      vertex 4.6 6.6 0
    endloop
  endfacet
  facet normal 0 0 -1
    outer loop
      vertex 1.2 6.6 0
      vertex 4.6 7.4 0
      vertex 9 6.8 0
    endloop
  endfacet
  facet normal 0 0 -1
    outer loop
      vertex 4.6 1.4 0
      vertex 4.6 6.6 0
      vertex 9 6.8 0
    endloop
  endfacet
  facet normal 0 0 -1
    outer loop
      vertex 4.6 1.4 0
      vertex 9 6.1 0
      vertex 9 0.8 0
    endloop
  endfacet
  facet normal 0 0 -1
    outer loop
      vertex 4.6 1.4 0
      vertex 9 6.8 0
      vertex 9 6.1 0
    endloop
  endfacet
  facet normal 0 0 -1
    outer loop
      vertex 4.6 7.4 0
      vertex 9 12.1 0
      vertex 9 6.8 0
    endloop
  endfacet
  facet normal 0 0 -1
    outer loop
      vertex 4.6 12.600000000000001 0
      vertex 9 12.8 0
      vertex 4.6 7.4 0
    endloop
  endfacet
  facet normal 0 0 -1
    outer loop
      vertex 4.6 7.4 0
      vertex 9 12.8 0
      vertex 9 12.1 0
    endloop
  endfacet
  facet normal 0 0 -1
    outer loop
      vertex 4.6 12.600000000000001 0
      vertex 9 18.1 0
      vertex 9 12.8 0
    endloop
  endfacet
  facet normal 0 0 -1
    outer loop
      vertex 4.6 12.600000000000001 0
      vertex 4.6 13.4 0
      vertex 9 29.9 0
    endloop
  endfacet
  facet normal 0 0 -1
    outer loop
      vertex 4.6 13.4 0
      vertex 4.6 18.6 0
      vertex 9 29.9 0
    endloop
  endfacet
  facet normal 0 0 -1
    outer loop
      vertex 4.6 12.600000000000001 0
      vertex 9 18.8 0
      vertex 9 18.1 0
    endloop
  endfacet
  facet normal 0 0 -1
    outer loop
      vertex 4.6 12.600000000000001 0
      vertex 9 24.1 0
      vertex 9 18.8 0
    endloop
  endfacet
  facet normal 0 0 -1
    outer loop
      vertex 4.6 12.600000000000001 0
      vertex 9 26.2 0
      vertex 9 24.1 0
    endloop
  endfacet
  facet normal 0 0 1
    outer loop
      vertex 0 0 2.4
      vertex 1.7994002998500749 2.8985007496251876 2.4
      vertex 1.7994002998500749 5.101499250374812 2.4
    endloop
  endfacet
  facet normal 0 0 1
    outer loop
      vertex 0 0 2.4
      vertex 1.7994002998500749 5.101499250374812 2.4
      vertex 1.7994002998500749 8.898500749625187 2.4
    endloop
  endfacet
  facet normal 0 0 1
    outer loop
      vertex 0 0 2.4
      vertex 1.7994002998500749 8.898500749625187 2.4
      vertex 1.7994002998500749 11.101499250374815 2.4
    endloop
  endfacet
  facet normal 0 0 1
    outer loop
      vertex 0 0 2.4
      vertex 1.7994002998500749 11.101499250374815 2.4
      vertex 1.7994002998500749 14.898500749625187 2.4
    endloop
  endfacet
  facet normal 0 0 1
    outer loop
      vertex 0 0 2.4
      vertex 1.7994002998500749 14.898500749625187 2.4
      vertex 1.7994002998500749 17.101499250374815 2.4
    endloop
  endfacet
  facet normal 0 0 1
    outer loop
      vertex 0 0 2.4
      vertex 6 0.8 2.4
      vertex 1.7994002998500749 2.8985007496251876 2.4
    endloop
  endfacet
  facet normal 0 0 1
    outer loop
      vertex 1.7994002998500749 2.8985007496251876 2.4
      vertex 6 0.8 2.4
      vertex 4.000599700149925 2.8985007496251876 2.4
    endloop
  endfacet
  facet normal 0 0 1
    outer loop
      vertex 4.000599700149925 5.101499250374812 2.4
      vertex 1.7994002998500749 8.898500749625187 2.4
      vertex 1.7994002998500749 5.101499250374812 2.4
    endloop
  endfacet
  facet normal 0 0 1
    outer loop
      vertex 4.000599700149925 5.101499250374812 2.4
      vertex 4.000599700149925 8.898500749625187 2.4
      vertex 1.7994002998500749 8.898500749625187 2.4
    endloop
  endfacet
  facet normal -1 0 0
    outer loop
      vertex 0 0 0
      vertex 0 0 2.4
      vertex 0 42.8 2.4
    endloop
  endfacet
  facet normal 0 0 1
    outer loop
      vertex 0 0 2.4
      vertex 1.7994002998500749 17.101499250374815 2.4
      vertex 0.8 26 2.4
    endloop
  endfacet
  facet normal 0 0 1
    outer loop
      vertex 0 0 2.4
      vertex 0.8 26 2.4
      vertex 0.8 31 2.4
    endloop
  endfacet
  facet normal 0 0 1
    outer loop
      vertex 1.7994002998500749 17.101499250374815 2.4
      vertex 1.7994002998500749 20.898500749625185 2.4
      vertex 0.8 26 2.4
    endloop
  endfacet
  facet normal 0 0 1
    outer loop
      vertex 4.000599700149925 11.101499250374815 2.4
      vertex 1.7994002998500749 14.898500749625187 2.4
      vertex 1.7994002998500749 11.101499250374815 2.4
    endloop
  endfacet
  facet normal 0 0 1
    outer loop
      vertex 4.000599700149925 11.101499250374815 2.4
      vertex 4.000599700149925 14.898500749625187 2.4
      vertex 1.7994002998500749 14.898500749625187 2.4
    endloop
  endfacet
  facet normal 0 0 1
    outer loop
      vertex 4.000599700149925 17.101499250374815 2.4
      vertex 1.7994002998500749 20.898500749625185 2.4
      vertex 1.7994002998500749 17.101499250374815 2.4
    endloop
  endfacet
  facet normal 0 0 1
    outer loop
      vertex 4.000599700149925 17.101499250374815 2.4
      vertex 4.000599700149925 20.898500749625185 2.4
      vertex 1.7994002998500749 20.898500749625185 2.4
    endloop
  endfacet
  facet normal 0 -1 0
    outer loop
      vertex 0 0 0
      vertex 15.8 0 2.4
      vertex 0 0 2.4
    endloop
  endfacet
  facet normal 0 0 1
    outer loop
      vertex 4.000599700149925 2.8985007496251876 2.4
      vertex 6 0.8 2.4
      vertex 4.000599700149925 5.101499250374812 2.4
    endloop
  endfacet
  facet normal 0 0 1
    outer loop
      vertex 4.000599700149925 5.101499250374812 2.4
      vertex 6 0.8 2.4
      vertex 6 26 2.4
    endloop
  endfacet
  facet normal 0 0 1
    outer loop
      vertex 0 0 2.4
      vertex 15.8 0 2.4
      vertex 6 0.8 2.4
    endloop
  endfacet
  facet normal 0 0 1
    outer loop
      vertex 4.000599700149925 5.101499250374812 2.4
      vertex 6 26 2.4
      vertex 4.000599700149925 8.898500749625187 2.4
    endloop
  endfacet
  facet normal 0 0 1
    outer loop
      vertex 4.000599700149925 8.898500749625187 2.4
      vertex 6 26 2.4
      vertex 4.000599700149925 11.101499250374815 2.4
    endloop
  endfacet
  facet normal 0 0 1
    outer loop
      vertex 4.000599700149925 11.101499250374815 2.4
      vertex 6 26 2.4
      vertex 4.000599700149925 14.898500749625187 2.4
    endloop
  endfacet
  facet normal 0 0 1
    outer loop
      vertex 4.000599700149925 17.101499250374815 2.4
      vertex 4.000599700149925 14.898500749625187 2.4
      vertex 6 26 2.4
    endloop
  endfacet
  facet normal 0 0 1
    outer loop
      vertex 4.000599700149925 17.101499250374815 2.4
      vertex 6 26 2.4
      vertex 4.000599700149925 20.898500749625185 2.4
    endloop
  endfacet
  facet normal 0 0 -1
    outer loop
      vertex 0 0 0
      vertex 0 42.8 0
      vertex 0.8 26.2 0
    endloop
  endfacet
  facet normal 0 0 -1
    outer loop
      vertex 1.2 19.4 0
      vertex 0.8 26.2 0
      vertex 1.2 24.599999999999998 0
    endloop
  endfacet
  facet normal 0 0 -1
    outer loop
      vertex 1.2 24.599999999999998 0
      vertex 0.8 26.2 0
      vertex 6.8 26.2 0
    endloop
  endfacet
  facet normal 0 0 -1
    outer loop
      vertex 0.8 31 0
      vertex 6.8 29.9 0
      vertex 0.8 29.9 0
    endloop
  endfacet
  facet normal -1 0 0
    outer loop
      vertex 0 0 0
      vertex 0 42.8 2.4
      vertex 0 42.8 0
    endloop
  endfacet
  facet normal 0 0 -1
    outer loop
      vertex 0 42.8 0
      vertex 0.8 29.9 0
      vertex 0.8 26.2 0
    endloop
  endfacet
  facet normal 0 0 -1
    outer loop
      vertex 0 42.8 0
      vertex 0.8 31 0
      vertex 0.8 29.9 0
    endloop
  endfacet
  facet normal 0 0 -1
    outer loop
      vertex 0 42.8 0
      vertex 0.8 42 0
      vertex 0.8 31 0
    endloop
  endfacet
  facet normal 0 0 -1
    outer loop
      vertex 1.2 24.599999999999998 0
      vertex 6.8 26.2 0
      vertex 4.6 24.599999999999998 0
    endloop
  endfacet
  facet normal 0 0 -1
    outer loop
      vertex 4.6 19.4 0
      vertex 4.6 24.599999999999998 0
      vertex 6.8 26.2 0
    endloop
  endfacet
  facet normal 0 0 -1
    outer loop
      vertex 0.8 31 0
      vertex 9 29.9 0
      vertex 6.8 29.9 0
    endloop
  endfacet
  facet normal 0 0 -1
    outer loop
      vertex 4.6 18.6 0
      vertex 4.6 19.4 0
      vertex 9 29.9 0
    endloop
  endfacet
  facet normal 0 0 -1
    outer loop
      vertex 4.6 19.4 0
      vertex 6.8 26.2 0
      vertex 9 29.9 0
    endloop
  endfacet
  facet normal 0 0 -1
    outer loop
      vertex 4.6 12.600000000000001 0
      vertex 9 29.9 0
      vertex 9 26.2 0
    endloop
  endfacet
  facet normal 0 0 -1
    outer loop
      vertex 6.8 26.2 0
      vertex 6.8 29.9 0
      vertex 9 29.9 0
    endloop
  endfacet
  facet normal 0 0 -1
    outer loop
      vertex 0 42.8 0
      vertex 15.000000000000002 42 0
      vertex 0.8 42 0
    endloop
  endfacet
  facet normal 0 1 0
    outer loop
      vertex 0 42.8 0
      vertex 0 42.8 2.4
      vertex 15.8 42.8 0
    endloop
  endfacet
  facet normal 0 0 1
    outer loop
      vertex 0 0 2.4
      vertex 0.8 31 2.4
      vertex 0 42.8 2.4
    endloop
  endfacet
  facet normal 0 0 1
    outer loop
      vertex 1.7994002998500749 20.898500749625185 2.4
      vertex 1.7994002998500749 23.10149925037481 2.4
      vertex 0.8 26 2.4
    endloop
  endfacet
  facet normal 0 0 1
    outer loop
      vertex 4.000599700149925 23.10149925037481 2.4
      vertex 0.8 26 2.4
      vertex 1.7994002998500749 23.10149925037481 2.4
    endloop
  endfacet
  facet normal 0 0 1
    outer loop
      vertex 4.000599700149925 23.10149925037481 2.4
      vertex 6 26 2.4
      vertex 0.8 26 2.4
    endloop
  endfacet
  facet normal 0 0 1
    outer loop
      vertex 0 42.8 2.4
      vertex 0.8 31 2.4
      vertex 0.8 42 2.4
    endloop
  endfacet
  facet normal 0 0 1
    outer loop
      vertex 0 42.8 2.4
      vertex 0.8 42 2.4
      vertex 6.936363636363637 42 2.4
    endloop
  endfacet
  facet normal 0 0 1
    outer loop
      vertex 4.000599700149925 20.898500749625185 2.4
      vertex 6 26 2.4
      vertex 4.000599700149925 23.10149925037481 2.4
    endloop
  endfacet
  facet normal 0 0 1
    outer loop
      vertex 0 42.8 2.4
      vertex 6.936363636363637 42 2.4
      vertex 15.000000000000002 41.99999999999999 2.4
    endloop
  endfacet
  facet normal 0 0 -1
    outer loop
      vertex 0 0 0
      vertex 9 0.8 0
      vertex 15.8 0 0
    endloop
  endfacet
  facet normal 0 0 -1
    outer loop
      vertex 9 6.8 0
      vertex 15 6.8 0
      vertex 9 6.1 0
    endloop
  endfacet
  facet normal 0 -1 0
    outer loop
      vertex 0 0 0
      vertex 15.8 0 0
      vertex 15.8 0 2.4
    endloop
  endfacet
  facet normal 0 0 -1
    outer loop
      vertex 9 12.8 0
      vertex 15 12.8 0
      vertex 9 12.1 0
    endloop
  endfacet
  facet normal 0 0 -1
    outer loop
      vertex 9 18.8 0
      vertex 15 18.8 0
      vertex 9 18.1 0
    endloop
  endfacet
  facet normal 0 0 -1
    outer loop
      vertex 15.8 0 0
      vertex 9 0.8 0
      vertex 15 0.8 0
    endloop
  endfacet
  facet normal 0 0 -1
    outer loop
      vertex 9 6.1 0
      vertex 15 6.8 0
      vertex 15 6.1 0
    endloop
  endfacet
  facet normal 0 0 -1
    outer loop
      vertex 15.8 0 0
      vertex 15 0.8 0
      vertex 15 6.1 0
    endloop
  endfacet
  facet normal 0 0 -1
    outer loop
      vertex 15.8 0 0
      vertex 15 6.1 0
      vertex 15 6.8 0
    endloop
  endfacet
  facet normal 0 0 -1
    outer loop
      vertex 15.8 0 0
      vertex 15 6.8 0
      vertex 15 12.1 0
    endloop
  endfacet
  facet normal 0 0 -1
    outer loop
      vertex 15.8 0 0
      vertex 15 12.1 0
      vertex 15 12.8 0
    endloop
  endfacet
  facet normal 0 0 -1
    outer loop
      vertex 15.8 0 0
      vertex 15 12.8 0
      vertex 15 18.1 0
    endloop
  endfacet
  facet normal 1 0 0
    outer loop
      vertex 15.8 0 0
      vertex 15.8 0.8 1
      vertex 15.8 0 2.4
    endloop
  endfacet
  facet normal 0 0 -1
    outer loop
      vertex 15 12.1 0
      vertex 9 12.1 0
      vertex 15 12.8 0
    endloop
  endfacet
  facet normal 0 0 -1
    outer loop
      vertex 9 18.1 0
      vertex 15 18.8 0
      vertex 15 18.1 0
    endloop
  endfacet
  facet normal 0 0 -1
    outer loop
      vertex 15.8 0 0
      vertex 15 18.1 0
      vertex 15 18.8 0
    endloop
  endfacet
  facet normal 0 0 -1
    outer loop
      vertex 15.8 0 0
      vertex 15 18.8 0
      vertex 15 24.1 0
    endloop
  endfacet
  facet normal 1 0 0
    outer loop
      vertex 15.8 0 0
      vertex 15.8 42.8 0
      vertex 15.8 0.8 1
    endloop
  endfacet
  facet normal 0 0 -1
    outer loop
      vertex 15.8 0 0
      vertex 15 24.1 0
      vertex 15 26.2 0
    endloop
  endfacet
  facet normal 0 0 -1
    outer loop
      vertex 15.8 0 0
      vertex 15 26.2 0
      vertex 15 29.9 0
    endloop
  endfacet
  facet normal 0 0 -1
    outer loop
      vertex 15.8 0 0
      vertex 15 29.9 0
      vertex 15.000000000000002 31 0
    endloop
  endfacet
  facet normal 0 0 1
    outer loop
      vertex 15.8 0 2.4
      vertex 15.8 0.8 2.4
      vertex 6 0.8 2.4
    endloop
  endfacet
  facet normal 1 0 0
    outer loop
      vertex 15.8 0 2.4
      vertex 15.8 0.8 1
      vertex 15.8 0.8 2.4
    endloop
  endfacet
  facet normal 0 0 -1
    outer loop
      vertex 15.000000000000002 31 0
      vertex 9 29.9 0
      vertex 0.8 31 0
    endloop
  endfacet
  facet normal 0 0 -1
    outer loop
      vertex 9 26.2 0
      vertex 15 24.1 0
      vertex 9 24.1 0
    endloop
  endfacet
  facet normal 0 0 -1
    outer loop
      vertex 0 42.8 0
      vertex 15.8 42.8 0
      vertex 15.000000000000002 42 0
    endloop
  endfacet
  facet normal 0 0 -1
    outer loop
      vertex 9 26.2 0
      vertex 15 26.2 0
      vertex 15 24.1 0
    endloop
  endfacet
  facet normal 0 0 -1
    outer loop
      vertex 15.000000000000002 31 0
      vertex 15 29.9 0
      vertex 9 29.9 0
    endloop
  endfacet
  facet normal 0 0 -1
    outer loop
      vertex 15.8 0 0
      vertex 15.000000000000002 31 0
      vertex 15.8 42.8 0
    endloop
  endfacet
  facet normal 1 0 0
    outer loop
      vertex 15.8 42.8 0
      vertex 15.8 41.99999999999999 1
      vertex 15.8 0.8 1
    endloop
  endfacet
  facet normal 0 0 -1
    outer loop
      vertex 15.8 42.8 0
      vertex 15.000000000000002 31 0
      vertex 15.000000000000002 42 0
    endloop
  endfacet
  facet normal 1 0 0
    outer loop
      vertex 15.8 42.8 0
      vertex 15.8 42.8 2.4
      vertex 15.8 41.99999999999999 1
    endloop
  endfacet
  facet normal 0 1 0
    outer loop
      vertex 0 42.8 2.4
      vertex 15.8 42.8 2.4
      vertex 15.8 42.8 0
    endloop
  endfacet
  facet normal 0 0 1
    outer loop
      vertex 0 42.8 2.4
      vertex 15.000000000000002 41.99999999999999 2.4
      vertex 15.8 42.8 2.4
    endloop
  endfacet
  facet normal 1 0 0
    outer loop
      vertex 15.8 42.8 2.4
      vertex 15.8 41.99999999999999 2.4
      vertex 15.8 41.99999999999999 1
    endloop
  endfacet
  facet normal 0 0 1
    outer loop
      vertex 15.8 42.8 2.4
      vertex 15.000000000000002 41.99999999999999 2.4
      vertex 15.8 41.99999999999999 2.4
    endloop
  endfacet
  facet normal 1 0 0
    outer loop
      vertex 0.8 42 1
      vertex 0.8 31 0
      vertex 0.8 42 0
    endloop
  endfacet
  facet normal 1 0 0
    outer loop
      vertex 0.8 31 1
      vertex 0.8 31 0
      vertex 0.8 42 1
    endloop
  endfacet
  facet normal 0 -1 0
    outer loop
      vertex 0.8 42 1
      vertex 0.8 42 0
      vertex 9.8 42 1
    endloop
  endfacet
  facet normal 0 1 0
    outer loop
      vertex 0.8 31 1
      vertex 15.000000000000002 31 0
      vertex 0.8 31 0
    endloop
  endfacet
  facet normal 0 1 0
    outer loop
      vertex 0.8 31 1
      vertex 6 31 1
      vertex 15.000000000000002 31 0
    endloop
  endfacet
  facet normal 1 0 0
    outer loop
      vertex 0.8 31 1
      vertex 0.8 42 1
      vertex 0.8 42 2.4
    endloop
  endfacet
  facet normal 1 0 0
    outer loop
      vertex 0.8 31 1
      vertex 0.8 42 2.4
      vertex 0.8 31 2.4
    endloop
  endfacet
  facet normal 0 -1 -7.105427357601002e-15
    outer loop
      vertex 15.000000000000002 41.99999999999999 1
      vertex 0.8 42 0
      vertex 15.000000000000002 42 0
    endloop
  endfacet
  facet normal -1.3664283380001923e-15 -1 1.2297855042001731e-14
    outer loop
      vertex 9.8 42 1
      vertex 0.8 42 0
      vertex 15.000000000000002 41.99999999999999 1
    endloop
  endfacet
  facet normal 0 1 0
    outer loop
      vertex 6 31 1
      vertex 15.000000000000002 31 1
      vertex 15.000000000000002 31 0
    endloop
  endfacet
  facet normal -1 0 0
    outer loop
      vertex 15.000000000000002 31 1
      vertex 15.000000000000002 42 0
      vertex 15.000000000000002 31 0
    endloop
  endfacet
  facet normal -1 0 0
    outer loop
      vertex 15.000000000000002 31 1
      vertex 15.000000000000002 41.99999999999999 1
      vertex 15.000000000000002 42 0
    endloop
  endfacet
  facet normal -8.81169119882875e-16 -1 -1.802391381578608e-15
    outer loop
      vertex 9.8 42 1
      vertex 15.000000000000002 41.99999999999999 2.4
      vertex 6.936363636363637 42 2.4
    endloop
  endfacet
  facet normal -1.3664283380001923e-15 -1 0
    outer loop
      vertex 9.8 42 1
      vertex 15.000000000000002 41.99999999999999 1
      vertex 15.000000000000002 41.99999999999999 2.4
    endloop
  endfacet
  facet normal 0 0 1
    outer loop
      vertex 6 0.8 1
      vertex 9 18.8 1
      vertex 6 26 1
    endloop
  endfacet
  facet normal 0 1 0
    outer loop
      vertex 6 0.8 1
      vertex 6 0.8 2.4
      vertex 9 0.8 1
    endloop
  endfacet
  facet normal 1 0 0
    outer loop
      vertex 6 0.8 1
      vertex 6 26 2.4
      vertex 6 0.8 2.4
    endloop
  endfacet
  facet normal 1 0 0
    outer loop
      vertex 6 0.8 1
      vertex 6 26 1
      vertex 6 26 2.4
    endloop
  endfacet
  facet normal 0 0 1
    outer loop
      vertex 6 26 1
      vertex 6.8 26.2 1
      vertex 6 26.2 1
    endloop
  endfacet
  facet normal 0 0 1
    outer loop
      vertex 6 26 1
      vertex 9 24.1 1
      vertex 6.8 26.2 1
    endloop
  endfacet
  facet normal 0 0 1
    outer loop
      vertex 6 29.9 1
      vertex 6.8 29.9 1
      vertex 6 31 1
    endloop
  endfacet
  facet normal 0 0 1
    outer loop
      vertex 6.8 26.2 1
      vertex 9 26.2 1
      vertex 6.8 29.9 1
    endloop
  endfacet
  facet normal 0 0 1
    outer loop
      vertex 6 31 1
      vertex 6.8 29.9 1
      vertex 9 29.9 1
    endloop
  endfacet
  facet normal 0 0 1
    outer loop
      vertex 6 0.8 1
      vertex 9 0.8 1
      vertex 9 6.1 1
    endloop
  endfacet
  facet normal 0 0 1
    outer loop
      vertex 6 0.8 1
      vertex 9 6.1 1
      vertex 9 6.8 1
    endloop
  endfacet
  facet normal 0 0 1
    outer loop
      vertex 6 0.8 1
      vertex 9 6.8 1
      vertex 9 12.1 1
    endloop
  endfacet
  facet normal 0 0 1
    outer loop
      vertex 6 0.8 1
      vertex 9 12.1 1
      vertex 9 12.8 1
    endloop
  endfacet
  facet normal 0 0 1
    outer loop
      vertex 6 0.8 1
      vertex 9 12.8 1
      vertex 9 18.1 1
    endloop
  endfacet
  facet normal 0 0 1
    outer loop
      vertex 9 6.1 1
      vertex 15 6.1 1
      vertex 9 6.8 1
    endloop
  endfacet
  facet normal 0 0 1
    outer loop
      vertex 6 0.8 1
      vertex 9 18.1 1
      vertex 9 18.8 1
    endloop
  endfacet
  facet normal 0 0 1
    outer loop
      vertex 9 12.1 1
      vertex 15 12.1 1
      vertex 9 12.8 1
    endloop
  endfacet
  facet normal 0 0 1
    outer loop
      vertex 9 18.1 1
      vertex 15 18.1 1
      vertex 9 18.8 1
    endloop
  endfacet
  facet normal 0 0 1
    outer loop
      vertex 9 6.8 1
      vertex 15 6.1 1
      vertex 15 6.8 1
    endloop
  endfacet
  facet normal 0 0 1
    outer loop
      vertex 15 0.8 1
      vertex 15.8 0.8 1
      vertex 15 6.1 1
    endloop
  endfacet
  facet normal 0 0 1
    outer loop
      vertex 15 6.1 1
      vertex 15.8 0.8 1
      vertex 15 6.8 1
    endloop
  endfacet
  facet normal 0 0 1
    outer loop
      vertex 15 6.8 1
      vertex 15.8 0.8 1
      vertex 15 12.1 1
    endloop
  endfacet
  facet normal 0 0 1
    outer loop
      vertex 9 12.8 1
      vertex 15 12.1 1
      vertex 15 12.8 1
    endloop
  endfacet
  facet normal 0 0 1
    outer loop
      vertex 9 18.8 1
      vertex 15 18.1 1
      vertex 15 18.8 1
    endloop
  endfacet
  facet normal 0 0 1
    outer loop
      vertex 15 12.1 1
      vertex 15.8 0.8 1
      vertex 15.8 41.99999999999999 1
    endloop
  endfacet
  facet normal 0 1 0
    outer loop
      vertex 9 0.8 1
      vertex 6 0.8 2.4
      vertex 15 0.8 1
    endloop
  endfacet
  facet normal 0 1 0
    outer loop
      vertex 15 0.8 1
      vertex 6 0.8 2.4
      vertex 15.8 0.8 1
    endloop
  endfacet
  facet normal 0 1 0
    outer loop
      vertex 6 0.8 2.4
      vertex 15.8 0.8 2.4
      vertex 15.8 0.8 1
    endloop
  endfacet
  facet normal 0 0 1
    outer loop
      vertex 6 26 1
      vertex 9 18.8 1
      vertex 9 24.1 1
    endloop
  endfacet
  facet normal 0 0 1
    outer loop
      vertex 6.8 26.2 1
      vertex 9 24.1 1
      vertex 9 26.2 1
    endloop
  endfacet
  facet normal 0 0 1
    outer loop
      vertex 6.8 29.9 1
      vertex 9 26.2 1
      vertex 9 29.9 1
    endloop
  endfacet
  facet normal 0 0 1
    outer loop
      vertex 9 24.1 1
      vertex 15 24.1 1
      vertex 9 26.2 1
    endloop
  endfacet
  facet normal 0 0 1
    outer loop
      vertex 6 31 1
      vertex 9 29.9 1
      vertex 15 29.9 1
    endloop
  endfacet
  facet normal 0 0 1
    outer loop
      vertex 9 26.2 1
      vertex 15 24.1 1
      vertex 15 26.2 1
    endloop
  endfacet
  facet normal 0 0 1
    outer loop
      vertex 6 31 1
      vertex 15 29.9 1
      vertex 15.000000000000002 31 1
    endloop
  endfacet
  facet normal 0 0 1
    outer loop
      vertex 15 12.1 1
      vertex 15.8 41.99999999999999 1
      vertex 15 12.8 1
    endloop
  endfacet
  facet normal 0 0 1
    outer loop
      vertex 15 12.8 1
      vertex 15.8 41.99999999999999 1
      vertex 15 18.1 1
    endloop
  endfacet
  facet normal 0 0 1
    outer loop
      vertex 15 18.1 1
      vertex 15.8 41.99999999999999 1
      vertex 15 18.8 1
    endloop
  endfacet
  facet normal 0 0 1
    outer loop
      vertex 15 18.8 1
      vertex 15.8 41.99999999999999 1
      vertex 15 24.1 1
    endloop
  endfacet
  facet normal 0 0 1
    outer loop
      vertex 15 24.1 1
      vertex 15.8 41.99999999999999 1
      vertex 15 26.2 1
    endloop
  endfacet
  facet normal 0 0 1
    outer loop
      vertex 15 26.2 1
      vertex 15.8 41.99999999999999 1
      vertex 15 29.9 1
    endloop
  endfacet
  facet normal 0 0 1
    outer loop
      vertex 15 29.9 1
      vertex 15.8 41.99999999999999 1
      vertex 15.000000000000002 31 1
    endloop
  endfacet
  facet normal 0 0 1
    outer loop
      vertex 15.000000000000002 31 1
      vertex 15.8 41.99999999999999 1
      vertex 15.000000000000002 41.99999999999999 1
    endloop
  endfacet
  facet normal 0 -1 0
    outer loop
      vertex 15.000000000000002 41.99999999999999 1
      vertex 15.8 41.99999999999999 1
      vertex 15.8 41.99999999999999 2.4
    endloop
  endfacet
  facet normal 0 -1 0
    outer loop
      vertex 15.000000000000002 41.99999999999999 1
      vertex 15.8 41.99999999999999 2.4
      vertex 15.000000000000002 41.99999999999999 2.4
    endloop
  endfacet
  facet normal 0 0 0
    outer loop
      vertex 0.8 26 1
      vertex 0.8 31 1
      vertex 0.8 26.2 1
    endloop
  endfacet
  facet normal 0 0 0
    outer loop
      vertex 0.8 26 1
      vertex 0.8 26.2 1
      vertex 0.8 31 1
    endloop
  endfacet
  facet normal 0 0 0
    outer loop
      vertex 0.8 26.2 1
      vertex 0.8 31 1
      vertex 0.8 29.9 1
    endloop
  endfacet
  facet normal 0 0 0
    outer loop
      vertex 0.8 26.2 1
      vertex 0.8 29.9 1
      vertex 0.8 31 1
    endloop
  endfacet
  facet normal 0 0 1
    outer loop
      vertex 0.8 26 1
      vertex 6 26 1
      vertex 0.8 26.2 1
    endloop
  endfacet
  facet normal 0 0 1
    outer loop
      vertex 0.8 29.9 1
      vertex 6 29.9 1
      vertex 0.8 31 1
    endloop
  endfacet
  facet normal 0 0 1
    outer loop
      vertex 0.8 26.2 1
      vertex 6 26 1
      vertex 6 26.2 1
    endloop
  endfacet
  facet normal 0 0 1
    outer loop
      vertex 0.8 31 1
      vertex 6 29.9 1
      vertex 6 31 1
    endloop
  endfacet
  facet normal 1 0 0
    outer loop
      vertex 0.8 26 1
      vertex 0.8 26.2 1
      vertex 0.8 26.2 1.999
    endloop
  endfacet
  facet normal 1 0 0
    outer loop
      vertex 0.8 26 1
      vertex 0.8 26.2 1.999
      vertex 0.8 26 2.4
    endloop
  endfacet
  facet normal 1 0 0
    outer loop
      vertex 0.8 29.9 1
      vertex 0.8 31 1
      vertex 0.8 29.9 1.999
    endloop
  endfacet
  facet normal 1 0 0
    outer loop
      vertex 0.8 31 1
      vertex 0.8 31 2.4
      vertex 0.8 29.9 1.999
    endloop
  endfacet
  facet normal 0 1 0
    outer loop
      vertex 0.8 26 1
      vertex 0.8 26 2.4
      vertex 6 26 1
    endloop
  endfacet
  facet normal 1 0 0
    outer loop
      vertex 0.8 26.2 1.999
      vertex 0.8 29.9 1.999
      vertex 0.8 31 2.4
    endloop
  endfacet
  facet normal 1 0 0
    outer loop
      vertex 0.8 26.2 1.999
      vertex 0.8 31 2.4
      vertex 0.8 26 2.4
    endloop
  endfacet
  facet normal 0 -1 0
    outer loop
      vertex 0.8 42 1
      vertex 6.936363636363637 42 2.4
      vertex 0.8 42 2.4
    endloop
  endfacet
  facet normal 0 1 0
    outer loop
      vertex 6 26 1
      vertex 0.8 26 2.4
      vertex 6 26 2.4
    endloop
  endfacet
  facet normal 0 -1 0
    outer loop
      vertex 0.8 42 1
      vertex 9.8 42 1
      vertex 6.936363636363637 42 2.4
    endloop
  endfacet
  facet normal 1 0 0
    outer loop
      vertex 0.8 29.9 1
      vertex 0.8 26.2 0
      vertex 0.8 29.9 0
    endloop
  endfacet
  facet normal 0 1 0
    outer loop
      vertex 0.8 26.2 1
      vertex 6.8 26.2 0
      vertex 0.8 26.2 0
    endloop
  endfacet
  facet normal 1 0 0
    outer loop
      vertex 0.8 26.2 1
      vertex 0.8 26.2 0
      vertex 0.8 29.9 1
    endloop
  endfacet
  facet normal 0 -1 0
    outer loop
      vertex 0.8 29.9 1
      vertex 0.8 29.9 0
      vertex 6 29.9 1
    endloop
  endfacet
  facet normal 0 -1 0
    outer loop
      vertex 6.8 29.9 1
      vertex 0.8 29.9 0
      vertex 6.8 29.9 0
    endloop
  endfacet
  facet normal -1 0 0
    outer loop
      vertex 6.8 26.2 1
      vertex 6.8 29.9 0
      vertex 6.8 26.2 0
    endloop
  endfacet
  facet normal 0 1 0
    outer loop
      vertex 0.8 26.2 1
      vertex 6 26.2 1
      vertex 6.8 26.2 0
    endloop
  endfacet
  facet normal 0 -1 0
    outer loop
      vertex 6 29.9 1
      vertex 0.8 29.9 0
      vertex 6.8 29.9 1
    endloop
  endfacet
  facet normal 0 1 0
    outer loop
      vertex 6 26.2 1
      vertex 6.8 26.2 1
      vertex 6.8 26.2 0
    endloop
  endfacet
  facet normal -1 0 0
    outer loop
      vertex 6.8 26.2 1
      vertex 6.8 29.9 1
      vertex 6.8 29.9 0
    endloop
  endfacet
  facet normal 1 0 0
    outer loop
      vertex 0.8 26.2 1
      vertex 0.8 29.9 1
      vertex 0.8 29.9 1.999
    endloop
  endfacet
  facet normal 1 0 0
    outer loop
      vertex 0.8 26.2 1
      vertex 0.8 29.9 1.999
      vertex 0.8 26.2 1.999
    endloop
  endfacet
  facet normal 1 0 0
    outer loop
      vertex 9 29.9 1
      vertex 9 26.2 0
      vertex 9 29.9 0
    endloop
  endfacet
  facet normal 0 1 0
    outer loop
      vertex 9 26.2 1
      vertex 15 26.2 0
      vertex 9 26.2 0
    endloop
  endfacet
  facet normal 1 0 0
    outer loop
      vertex 9 26.2 1
      vertex 9 26.2 0
      vertex 9 29.9 1
    endloop
  endfacet
  facet normal 0 -1 0
    outer loop
      vertex 9 29.9 1
      vertex 9 29.9 0
      vertex 15 29.9 1
    endloop
  endfacet
  facet normal 0 -1 0
    outer loop
      vertex 15 29.9 1
      vertex 9 29.9 0
      vertex 15 29.9 0
    endloop
  endfacet
  facet normal -1 0 0
    outer loop
      vertex 15 26.2 1
      vertex 15 29.9 0
      vertex 15 26.2 0
    endloop
  endfacet
  facet normal 0 1 0
    outer loop
      vertex 9 26.2 1
      vertex 15 26.2 1
      vertex 15 26.2 0
    endloop
  endfacet
  facet normal -1 0 0
    outer loop
      vertex 15 26.2 1
      vertex 15 29.9 1
      vertex 15 29.9 0
    endloop
  endfacet
endsolid OpenSCAD_Model
